<mxfile host="app.diagrams.net" modified="2021-06-01T13:29:25.845Z" agent="5.0 (Macintosh; Intel Mac OS X 10_15_7) AppleWebKit/537.36 (KHTML, like Gecko) Chrome/90.0.4430.212 Safari/537.36" etag="WXWx_1uiMOQfJ-BhdduI" version="14.7.3" type="github">
  <diagram id="j9zhiFBAbjA_Grxcjkq9" name="Page-1">
    <mxGraphModel dx="1113" dy="621" grid="1" gridSize="10" guides="1" tooltips="1" connect="1" arrows="1" fold="1" page="1" pageScale="1" pageWidth="1600" pageHeight="900" math="0" shadow="0">
      <root>
        <mxCell id="0" />
        <mxCell id="1" parent="0" />
        <mxCell id="bUKQFxGgtLqTxP26M6bi-79" value="管理者" style="shape=table;startSize=30;container=1;collapsible=1;childLayout=tableLayout;fixedRows=1;rowLines=0;fontStyle=1;align=center;resizeLast=1;" vertex="1" parent="1">
          <mxGeometry x="70" y="50" width="180" height="160" as="geometry" />
        </mxCell>
        <mxCell id="bUKQFxGgtLqTxP26M6bi-80" value="" style="shape=partialRectangle;collapsible=0;dropTarget=0;pointerEvents=0;fillColor=none;top=0;left=0;bottom=1;right=0;points=[[0,0.5],[1,0.5]];portConstraint=eastwest;" vertex="1" parent="bUKQFxGgtLqTxP26M6bi-79">
          <mxGeometry y="30" width="180" height="30" as="geometry" />
        </mxCell>
        <mxCell id="bUKQFxGgtLqTxP26M6bi-81" value="PK" style="shape=partialRectangle;connectable=0;fillColor=none;top=0;left=0;bottom=0;right=0;fontStyle=1;overflow=hidden;" vertex="1" parent="bUKQFxGgtLqTxP26M6bi-80">
          <mxGeometry width="30" height="30" as="geometry" />
        </mxCell>
        <mxCell id="bUKQFxGgtLqTxP26M6bi-82" value="UniqueID" style="shape=partialRectangle;connectable=0;fillColor=none;top=0;left=0;bottom=0;right=0;align=left;spacingLeft=6;fontStyle=5;overflow=hidden;" vertex="1" parent="bUKQFxGgtLqTxP26M6bi-80">
          <mxGeometry x="30" width="150" height="30" as="geometry" />
        </mxCell>
        <mxCell id="bUKQFxGgtLqTxP26M6bi-83" value="" style="shape=partialRectangle;collapsible=0;dropTarget=0;pointerEvents=0;fillColor=none;top=0;left=0;bottom=0;right=0;points=[[0,0.5],[1,0.5]];portConstraint=eastwest;" vertex="1" parent="bUKQFxGgtLqTxP26M6bi-79">
          <mxGeometry y="60" width="180" height="30" as="geometry" />
        </mxCell>
        <mxCell id="bUKQFxGgtLqTxP26M6bi-84" value="" style="shape=partialRectangle;connectable=0;fillColor=none;top=0;left=0;bottom=0;right=0;editable=1;overflow=hidden;" vertex="1" parent="bUKQFxGgtLqTxP26M6bi-83">
          <mxGeometry width="30" height="30" as="geometry" />
        </mxCell>
        <mxCell id="bUKQFxGgtLqTxP26M6bi-85" value="ログインID" style="shape=partialRectangle;connectable=0;fillColor=none;top=0;left=0;bottom=0;right=0;align=left;spacingLeft=6;overflow=hidden;" vertex="1" parent="bUKQFxGgtLqTxP26M6bi-83">
          <mxGeometry x="30" width="150" height="30" as="geometry" />
        </mxCell>
        <mxCell id="bUKQFxGgtLqTxP26M6bi-86" value="" style="shape=partialRectangle;collapsible=0;dropTarget=0;pointerEvents=0;fillColor=none;top=0;left=0;bottom=0;right=0;points=[[0,0.5],[1,0.5]];portConstraint=eastwest;" vertex="1" parent="bUKQFxGgtLqTxP26M6bi-79">
          <mxGeometry y="90" width="180" height="30" as="geometry" />
        </mxCell>
        <mxCell id="bUKQFxGgtLqTxP26M6bi-87" value="" style="shape=partialRectangle;connectable=0;fillColor=none;top=0;left=0;bottom=0;right=0;editable=1;overflow=hidden;" vertex="1" parent="bUKQFxGgtLqTxP26M6bi-86">
          <mxGeometry width="30" height="30" as="geometry" />
        </mxCell>
        <mxCell id="bUKQFxGgtLqTxP26M6bi-88" value="パスワード" style="shape=partialRectangle;connectable=0;fillColor=none;top=0;left=0;bottom=0;right=0;align=left;spacingLeft=6;overflow=hidden;" vertex="1" parent="bUKQFxGgtLqTxP26M6bi-86">
          <mxGeometry x="30" width="150" height="30" as="geometry" />
        </mxCell>
        <mxCell id="bUKQFxGgtLqTxP26M6bi-89" value="" style="shape=partialRectangle;collapsible=0;dropTarget=0;pointerEvents=0;fillColor=none;top=0;left=0;bottom=0;right=0;points=[[0,0.5],[1,0.5]];portConstraint=eastwest;" vertex="1" parent="bUKQFxGgtLqTxP26M6bi-79">
          <mxGeometry y="120" width="180" height="30" as="geometry" />
        </mxCell>
        <mxCell id="bUKQFxGgtLqTxP26M6bi-90" value="" style="shape=partialRectangle;connectable=0;fillColor=none;top=0;left=0;bottom=0;right=0;editable=1;overflow=hidden;" vertex="1" parent="bUKQFxGgtLqTxP26M6bi-89">
          <mxGeometry width="30" height="30" as="geometry" />
        </mxCell>
        <mxCell id="bUKQFxGgtLqTxP26M6bi-91" value="" style="shape=partialRectangle;connectable=0;fillColor=none;top=0;left=0;bottom=0;right=0;align=left;spacingLeft=6;overflow=hidden;" vertex="1" parent="bUKQFxGgtLqTxP26M6bi-89">
          <mxGeometry x="30" width="150" height="30" as="geometry" />
        </mxCell>
        <mxCell id="bUKQFxGgtLqTxP26M6bi-92" value="貸出履歴" style="shape=table;startSize=30;container=1;collapsible=1;childLayout=tableLayout;fixedRows=1;rowLines=0;fontStyle=1;align=center;resizeLast=1;" vertex="1" parent="1">
          <mxGeometry x="460" y="55" width="180" height="205" as="geometry" />
        </mxCell>
        <mxCell id="bUKQFxGgtLqTxP26M6bi-93" value="" style="shape=partialRectangle;collapsible=0;dropTarget=0;pointerEvents=0;fillColor=none;top=0;left=0;bottom=1;right=0;points=[[0,0.5],[1,0.5]];portConstraint=eastwest;" vertex="1" parent="bUKQFxGgtLqTxP26M6bi-92">
          <mxGeometry y="30" width="180" height="30" as="geometry" />
        </mxCell>
        <mxCell id="bUKQFxGgtLqTxP26M6bi-94" value="PK" style="shape=partialRectangle;connectable=0;fillColor=none;top=0;left=0;bottom=0;right=0;fontStyle=1;overflow=hidden;" vertex="1" parent="bUKQFxGgtLqTxP26M6bi-93">
          <mxGeometry width="30" height="30" as="geometry" />
        </mxCell>
        <mxCell id="bUKQFxGgtLqTxP26M6bi-95" value="UniqueID" style="shape=partialRectangle;connectable=0;fillColor=none;top=0;left=0;bottom=0;right=0;align=left;spacingLeft=6;fontStyle=5;overflow=hidden;" vertex="1" parent="bUKQFxGgtLqTxP26M6bi-93">
          <mxGeometry x="30" width="150" height="30" as="geometry" />
        </mxCell>
        <mxCell id="bUKQFxGgtLqTxP26M6bi-96" value="" style="shape=partialRectangle;collapsible=0;dropTarget=0;pointerEvents=0;fillColor=none;top=0;left=0;bottom=0;right=0;points=[[0,0.5],[1,0.5]];portConstraint=eastwest;" vertex="1" parent="bUKQFxGgtLqTxP26M6bi-92">
          <mxGeometry y="60" width="180" height="30" as="geometry" />
        </mxCell>
        <mxCell id="bUKQFxGgtLqTxP26M6bi-97" value="" style="shape=partialRectangle;connectable=0;fillColor=none;top=0;left=0;bottom=0;right=0;editable=1;overflow=hidden;" vertex="1" parent="bUKQFxGgtLqTxP26M6bi-96">
          <mxGeometry width="30" height="30" as="geometry" />
        </mxCell>
        <mxCell id="bUKQFxGgtLqTxP26M6bi-98" value="本ID" style="shape=partialRectangle;connectable=0;fillColor=none;top=0;left=0;bottom=0;right=0;align=left;spacingLeft=6;overflow=hidden;" vertex="1" parent="bUKQFxGgtLqTxP26M6bi-96">
          <mxGeometry x="30" width="150" height="30" as="geometry" />
        </mxCell>
        <mxCell id="bUKQFxGgtLqTxP26M6bi-99" value="" style="shape=partialRectangle;collapsible=0;dropTarget=0;pointerEvents=0;fillColor=none;top=0;left=0;bottom=0;right=0;points=[[0,0.5],[1,0.5]];portConstraint=eastwest;" vertex="1" parent="bUKQFxGgtLqTxP26M6bi-92">
          <mxGeometry y="90" width="180" height="30" as="geometry" />
        </mxCell>
        <mxCell id="bUKQFxGgtLqTxP26M6bi-100" value="" style="shape=partialRectangle;connectable=0;fillColor=none;top=0;left=0;bottom=0;right=0;editable=1;overflow=hidden;" vertex="1" parent="bUKQFxGgtLqTxP26M6bi-99">
          <mxGeometry width="30" height="30" as="geometry" />
        </mxCell>
        <mxCell id="bUKQFxGgtLqTxP26M6bi-101" value="ユーザーID" style="shape=partialRectangle;connectable=0;fillColor=none;top=0;left=0;bottom=0;right=0;align=left;spacingLeft=6;overflow=hidden;" vertex="1" parent="bUKQFxGgtLqTxP26M6bi-99">
          <mxGeometry x="30" width="150" height="30" as="geometry" />
        </mxCell>
        <mxCell id="bUKQFxGgtLqTxP26M6bi-150" value="リクエスト" style="shape=table;startSize=30;container=1;collapsible=1;childLayout=tableLayout;fixedRows=1;rowLines=0;fontStyle=1;align=center;resizeLast=1;" vertex="1" parent="1">
          <mxGeometry x="150" y="620" width="180" height="240" as="geometry" />
        </mxCell>
        <mxCell id="bUKQFxGgtLqTxP26M6bi-151" value="" style="shape=partialRectangle;collapsible=0;dropTarget=0;pointerEvents=0;fillColor=none;top=0;left=0;bottom=1;right=0;points=[[0,0.5],[1,0.5]];portConstraint=eastwest;" vertex="1" parent="bUKQFxGgtLqTxP26M6bi-150">
          <mxGeometry y="30" width="180" height="30" as="geometry" />
        </mxCell>
        <mxCell id="bUKQFxGgtLqTxP26M6bi-152" value="PK" style="shape=partialRectangle;connectable=0;fillColor=none;top=0;left=0;bottom=0;right=0;fontStyle=1;overflow=hidden;" vertex="1" parent="bUKQFxGgtLqTxP26M6bi-151">
          <mxGeometry width="30" height="30" as="geometry" />
        </mxCell>
        <mxCell id="bUKQFxGgtLqTxP26M6bi-153" value="ID" style="shape=partialRectangle;connectable=0;fillColor=none;top=0;left=0;bottom=0;right=0;align=left;spacingLeft=6;fontStyle=5;overflow=hidden;" vertex="1" parent="bUKQFxGgtLqTxP26M6bi-151">
          <mxGeometry x="30" width="150" height="30" as="geometry" />
        </mxCell>
        <mxCell id="bUKQFxGgtLqTxP26M6bi-154" value="" style="shape=partialRectangle;collapsible=0;dropTarget=0;pointerEvents=0;fillColor=none;top=0;left=0;bottom=0;right=0;points=[[0,0.5],[1,0.5]];portConstraint=eastwest;" vertex="1" parent="bUKQFxGgtLqTxP26M6bi-150">
          <mxGeometry y="60" width="180" height="30" as="geometry" />
        </mxCell>
        <mxCell id="bUKQFxGgtLqTxP26M6bi-155" value="" style="shape=partialRectangle;connectable=0;fillColor=none;top=0;left=0;bottom=0;right=0;editable=1;overflow=hidden;" vertex="1" parent="bUKQFxGgtLqTxP26M6bi-154">
          <mxGeometry width="30" height="30" as="geometry" />
        </mxCell>
        <mxCell id="bUKQFxGgtLqTxP26M6bi-156" value="本のタイトル" style="shape=partialRectangle;connectable=0;fillColor=none;top=0;left=0;bottom=0;right=0;align=left;spacingLeft=6;overflow=hidden;" vertex="1" parent="bUKQFxGgtLqTxP26M6bi-154">
          <mxGeometry x="30" width="150" height="30" as="geometry" />
        </mxCell>
        <mxCell id="bUKQFxGgtLqTxP26M6bi-157" value="" style="shape=partialRectangle;collapsible=0;dropTarget=0;pointerEvents=0;fillColor=none;top=0;left=0;bottom=0;right=0;points=[[0,0.5],[1,0.5]];portConstraint=eastwest;" vertex="1" parent="bUKQFxGgtLqTxP26M6bi-150">
          <mxGeometry y="90" width="180" height="30" as="geometry" />
        </mxCell>
        <mxCell id="bUKQFxGgtLqTxP26M6bi-158" value="" style="shape=partialRectangle;connectable=0;fillColor=none;top=0;left=0;bottom=0;right=0;editable=1;overflow=hidden;" vertex="1" parent="bUKQFxGgtLqTxP26M6bi-157">
          <mxGeometry width="30" height="30" as="geometry" />
        </mxCell>
        <mxCell id="bUKQFxGgtLqTxP26M6bi-159" value="作者" style="shape=partialRectangle;connectable=0;fillColor=none;top=0;left=0;bottom=0;right=0;align=left;spacingLeft=6;overflow=hidden;" vertex="1" parent="bUKQFxGgtLqTxP26M6bi-157">
          <mxGeometry x="30" width="150" height="30" as="geometry" />
        </mxCell>
        <mxCell id="bUKQFxGgtLqTxP26M6bi-160" value="" style="shape=partialRectangle;collapsible=0;dropTarget=0;pointerEvents=0;fillColor=none;top=0;left=0;bottom=0;right=0;points=[[0,0.5],[1,0.5]];portConstraint=eastwest;" vertex="1" parent="bUKQFxGgtLqTxP26M6bi-150">
          <mxGeometry y="120" width="180" height="30" as="geometry" />
        </mxCell>
        <mxCell id="bUKQFxGgtLqTxP26M6bi-161" value="" style="shape=partialRectangle;connectable=0;fillColor=none;top=0;left=0;bottom=0;right=0;editable=1;overflow=hidden;" vertex="1" parent="bUKQFxGgtLqTxP26M6bi-160">
          <mxGeometry width="30" height="30" as="geometry" />
        </mxCell>
        <mxCell id="bUKQFxGgtLqTxP26M6bi-162" value="ジャンル" style="shape=partialRectangle;connectable=0;fillColor=none;top=0;left=0;bottom=0;right=0;align=left;spacingLeft=6;overflow=hidden;" vertex="1" parent="bUKQFxGgtLqTxP26M6bi-160">
          <mxGeometry x="30" width="150" height="30" as="geometry" />
        </mxCell>
        <mxCell id="bUKQFxGgtLqTxP26M6bi-163" value="リクエスト数" style="shape=partialRectangle;connectable=0;fillColor=none;top=0;left=0;bottom=0;right=0;align=left;spacingLeft=6;overflow=hidden;" vertex="1" parent="1">
          <mxGeometry x="180" y="770" width="150" height="30" as="geometry" />
        </mxCell>
        <mxCell id="bUKQFxGgtLqTxP26M6bi-164" value="延滞" style="shape=table;startSize=30;container=1;collapsible=1;childLayout=tableLayout;fixedRows=1;rowLines=0;fontStyle=1;align=center;resizeLast=1;" vertex="1" parent="1">
          <mxGeometry x="460" y="620" width="180" height="240" as="geometry" />
        </mxCell>
        <mxCell id="bUKQFxGgtLqTxP26M6bi-165" value="" style="shape=partialRectangle;collapsible=0;dropTarget=0;pointerEvents=0;fillColor=none;top=0;left=0;bottom=1;right=0;points=[[0,0.5],[1,0.5]];portConstraint=eastwest;" vertex="1" parent="bUKQFxGgtLqTxP26M6bi-164">
          <mxGeometry y="30" width="180" height="30" as="geometry" />
        </mxCell>
        <mxCell id="bUKQFxGgtLqTxP26M6bi-166" value="PK" style="shape=partialRectangle;connectable=0;fillColor=none;top=0;left=0;bottom=0;right=0;fontStyle=1;overflow=hidden;" vertex="1" parent="bUKQFxGgtLqTxP26M6bi-165">
          <mxGeometry width="30" height="30" as="geometry" />
        </mxCell>
        <mxCell id="bUKQFxGgtLqTxP26M6bi-167" value="ID" style="shape=partialRectangle;connectable=0;fillColor=none;top=0;left=0;bottom=0;right=0;align=left;spacingLeft=6;fontStyle=5;overflow=hidden;" vertex="1" parent="bUKQFxGgtLqTxP26M6bi-165">
          <mxGeometry x="30" width="150" height="30" as="geometry" />
        </mxCell>
        <mxCell id="bUKQFxGgtLqTxP26M6bi-168" value="" style="shape=partialRectangle;collapsible=0;dropTarget=0;pointerEvents=0;fillColor=none;top=0;left=0;bottom=0;right=0;points=[[0,0.5],[1,0.5]];portConstraint=eastwest;" vertex="1" parent="bUKQFxGgtLqTxP26M6bi-164">
          <mxGeometry y="60" width="180" height="30" as="geometry" />
        </mxCell>
        <mxCell id="bUKQFxGgtLqTxP26M6bi-169" value="" style="shape=partialRectangle;connectable=0;fillColor=none;top=0;left=0;bottom=0;right=0;editable=1;overflow=hidden;" vertex="1" parent="bUKQFxGgtLqTxP26M6bi-168">
          <mxGeometry width="30" height="30" as="geometry" />
        </mxCell>
        <mxCell id="bUKQFxGgtLqTxP26M6bi-170" value="本ID" style="shape=partialRectangle;connectable=0;fillColor=none;top=0;left=0;bottom=0;right=0;align=left;spacingLeft=6;overflow=hidden;" vertex="1" parent="bUKQFxGgtLqTxP26M6bi-168">
          <mxGeometry x="30" width="150" height="30" as="geometry" />
        </mxCell>
        <mxCell id="bUKQFxGgtLqTxP26M6bi-171" value="" style="shape=partialRectangle;collapsible=0;dropTarget=0;pointerEvents=0;fillColor=none;top=0;left=0;bottom=0;right=0;points=[[0,0.5],[1,0.5]];portConstraint=eastwest;" vertex="1" parent="bUKQFxGgtLqTxP26M6bi-164">
          <mxGeometry y="90" width="180" height="30" as="geometry" />
        </mxCell>
        <mxCell id="bUKQFxGgtLqTxP26M6bi-172" value="" style="shape=partialRectangle;connectable=0;fillColor=none;top=0;left=0;bottom=0;right=0;editable=1;overflow=hidden;" vertex="1" parent="bUKQFxGgtLqTxP26M6bi-171">
          <mxGeometry width="30" height="30" as="geometry" />
        </mxCell>
        <mxCell id="bUKQFxGgtLqTxP26M6bi-173" value="ユーザーID" style="shape=partialRectangle;connectable=0;fillColor=none;top=0;left=0;bottom=0;right=0;align=left;spacingLeft=6;overflow=hidden;" vertex="1" parent="bUKQFxGgtLqTxP26M6bi-171">
          <mxGeometry x="30" width="150" height="30" as="geometry" />
        </mxCell>
        <mxCell id="bUKQFxGgtLqTxP26M6bi-174" value="" style="shape=partialRectangle;collapsible=0;dropTarget=0;pointerEvents=0;fillColor=none;top=0;left=0;bottom=0;right=0;points=[[0,0.5],[1,0.5]];portConstraint=eastwest;" vertex="1" parent="bUKQFxGgtLqTxP26M6bi-164">
          <mxGeometry y="120" width="180" height="30" as="geometry" />
        </mxCell>
        <mxCell id="bUKQFxGgtLqTxP26M6bi-175" value="" style="shape=partialRectangle;connectable=0;fillColor=none;top=0;left=0;bottom=0;right=0;editable=1;overflow=hidden;" vertex="1" parent="bUKQFxGgtLqTxP26M6bi-174">
          <mxGeometry width="30" height="30" as="geometry" />
        </mxCell>
        <mxCell id="bUKQFxGgtLqTxP26M6bi-176" value="延滞日数" style="shape=partialRectangle;connectable=0;fillColor=none;top=0;left=0;bottom=0;right=0;align=left;spacingLeft=6;overflow=hidden;" vertex="1" parent="bUKQFxGgtLqTxP26M6bi-174">
          <mxGeometry x="30" width="150" height="30" as="geometry" />
        </mxCell>
        <mxCell id="bUKQFxGgtLqTxP26M6bi-178" value="FK" style="shape=partialRectangle;connectable=0;fillColor=none;top=0;left=0;bottom=0;right=0;fontStyle=1;overflow=hidden;" vertex="1" parent="1">
          <mxGeometry x="460" y="680" width="30" height="50" as="geometry" />
        </mxCell>
        <mxCell id="bUKQFxGgtLqTxP26M6bi-179" value="FK" style="shape=partialRectangle;connectable=0;fillColor=none;top=0;left=0;bottom=0;right=0;fontStyle=1;overflow=hidden;" vertex="1" parent="1">
          <mxGeometry x="460" y="105" width="30" height="50" as="geometry" />
        </mxCell>
        <mxCell id="bUKQFxGgtLqTxP26M6bi-206" value="" style="endArrow=none;html=1;rounded=0;" edge="1" parent="1">
          <mxGeometry relative="1" as="geometry">
            <mxPoint x="460" y="150.00000000000009" as="sourcePoint" />
            <mxPoint x="640" y="150.00000000000009" as="targetPoint" />
          </mxGeometry>
        </mxCell>
        <mxCell id="bUKQFxGgtLqTxP26M6bi-207" value="" style="endArrow=none;html=1;rounded=0;" edge="1" parent="1">
          <mxGeometry relative="1" as="geometry">
            <mxPoint x="460" y="739.4100000000001" as="sourcePoint" />
            <mxPoint x="640" y="739.4100000000001" as="targetPoint" />
          </mxGeometry>
        </mxCell>
        <mxCell id="bUKQFxGgtLqTxP26M6bi-208" value="返却予定日" style="shape=partialRectangle;connectable=0;fillColor=none;top=0;left=0;bottom=0;right=0;align=left;spacingLeft=6;overflow=hidden;" vertex="1" parent="1">
          <mxGeometry x="490" y="770" width="150" height="30" as="geometry" />
        </mxCell>
        <mxCell id="bUKQFxGgtLqTxP26M6bi-218" value="" style="group" vertex="1" connectable="0" parent="1">
          <mxGeometry x="470" y="270" width="180" height="240" as="geometry" />
        </mxCell>
        <mxCell id="bUKQFxGgtLqTxP26M6bi-219" value="" style="group" vertex="1" connectable="0" parent="bUKQFxGgtLqTxP26M6bi-218">
          <mxGeometry x="-10" y="50" width="180" height="240" as="geometry" />
        </mxCell>
        <mxCell id="bUKQFxGgtLqTxP26M6bi-122" value="貸出" style="shape=table;startSize=30;container=1;collapsible=1;childLayout=tableLayout;fixedRows=1;rowLines=0;fontStyle=1;align=center;resizeLast=1;" vertex="1" parent="bUKQFxGgtLqTxP26M6bi-219">
          <mxGeometry width="180" height="240" as="geometry" />
        </mxCell>
        <mxCell id="bUKQFxGgtLqTxP26M6bi-123" value="" style="shape=partialRectangle;collapsible=0;dropTarget=0;pointerEvents=0;fillColor=none;top=0;left=0;bottom=1;right=0;points=[[0,0.5],[1,0.5]];portConstraint=eastwest;" vertex="1" parent="bUKQFxGgtLqTxP26M6bi-122">
          <mxGeometry y="30" width="180" height="30" as="geometry" />
        </mxCell>
        <mxCell id="bUKQFxGgtLqTxP26M6bi-124" value="PK" style="shape=partialRectangle;connectable=0;fillColor=none;top=0;left=0;bottom=0;right=0;fontStyle=1;overflow=hidden;" vertex="1" parent="bUKQFxGgtLqTxP26M6bi-123">
          <mxGeometry width="30" height="30" as="geometry" />
        </mxCell>
        <mxCell id="bUKQFxGgtLqTxP26M6bi-125" value="ID" style="shape=partialRectangle;connectable=0;fillColor=none;top=0;left=0;bottom=0;right=0;align=left;spacingLeft=6;fontStyle=5;overflow=hidden;" vertex="1" parent="bUKQFxGgtLqTxP26M6bi-123">
          <mxGeometry x="30" width="150" height="30" as="geometry" />
        </mxCell>
        <mxCell id="bUKQFxGgtLqTxP26M6bi-126" value="" style="shape=partialRectangle;collapsible=0;dropTarget=0;pointerEvents=0;fillColor=none;top=0;left=0;bottom=0;right=0;points=[[0,0.5],[1,0.5]];portConstraint=eastwest;" vertex="1" parent="bUKQFxGgtLqTxP26M6bi-122">
          <mxGeometry y="60" width="180" height="30" as="geometry" />
        </mxCell>
        <mxCell id="bUKQFxGgtLqTxP26M6bi-127" value="" style="shape=partialRectangle;connectable=0;fillColor=none;top=0;left=0;bottom=0;right=0;editable=1;overflow=hidden;" vertex="1" parent="bUKQFxGgtLqTxP26M6bi-126">
          <mxGeometry width="30" height="30" as="geometry" />
        </mxCell>
        <mxCell id="bUKQFxGgtLqTxP26M6bi-128" value="本ID" style="shape=partialRectangle;connectable=0;fillColor=none;top=0;left=0;bottom=0;right=0;align=left;spacingLeft=6;overflow=hidden;" vertex="1" parent="bUKQFxGgtLqTxP26M6bi-126">
          <mxGeometry x="30" width="150" height="30" as="geometry" />
        </mxCell>
        <mxCell id="bUKQFxGgtLqTxP26M6bi-129" value="" style="shape=partialRectangle;collapsible=0;dropTarget=0;pointerEvents=0;fillColor=none;top=0;left=0;bottom=0;right=0;points=[[0,0.5],[1,0.5]];portConstraint=eastwest;" vertex="1" parent="bUKQFxGgtLqTxP26M6bi-122">
          <mxGeometry y="90" width="180" height="30" as="geometry" />
        </mxCell>
        <mxCell id="bUKQFxGgtLqTxP26M6bi-130" value="" style="shape=partialRectangle;connectable=0;fillColor=none;top=0;left=0;bottom=0;right=0;editable=1;overflow=hidden;" vertex="1" parent="bUKQFxGgtLqTxP26M6bi-129">
          <mxGeometry width="30" height="30" as="geometry" />
        </mxCell>
        <mxCell id="bUKQFxGgtLqTxP26M6bi-131" value="貸出日" style="shape=partialRectangle;connectable=0;fillColor=none;top=0;left=0;bottom=0;right=0;align=left;spacingLeft=6;overflow=hidden;" vertex="1" parent="bUKQFxGgtLqTxP26M6bi-129">
          <mxGeometry x="30" width="150" height="30" as="geometry" />
        </mxCell>
        <mxCell id="bUKQFxGgtLqTxP26M6bi-132" value="" style="shape=partialRectangle;collapsible=0;dropTarget=0;pointerEvents=0;fillColor=none;top=0;left=0;bottom=0;right=0;points=[[0,0.5],[1,0.5]];portConstraint=eastwest;" vertex="1" parent="bUKQFxGgtLqTxP26M6bi-122">
          <mxGeometry y="120" width="180" height="30" as="geometry" />
        </mxCell>
        <mxCell id="bUKQFxGgtLqTxP26M6bi-133" value="" style="shape=partialRectangle;connectable=0;fillColor=none;top=0;left=0;bottom=0;right=0;editable=1;overflow=hidden;" vertex="1" parent="bUKQFxGgtLqTxP26M6bi-132">
          <mxGeometry width="30" height="30" as="geometry" />
        </mxCell>
        <mxCell id="bUKQFxGgtLqTxP26M6bi-134" value="返却日" style="shape=partialRectangle;connectable=0;fillColor=none;top=0;left=0;bottom=0;right=0;align=left;spacingLeft=6;overflow=hidden;" vertex="1" parent="bUKQFxGgtLqTxP26M6bi-132">
          <mxGeometry x="30" width="150" height="30" as="geometry" />
        </mxCell>
        <mxCell id="bUKQFxGgtLqTxP26M6bi-135" value="利用者" style="shape=partialRectangle;connectable=0;fillColor=none;top=0;left=0;bottom=0;right=0;align=left;spacingLeft=6;overflow=hidden;" vertex="1" parent="bUKQFxGgtLqTxP26M6bi-219">
          <mxGeometry x="30" y="150" width="150" height="30" as="geometry" />
        </mxCell>
        <mxCell id="bUKQFxGgtLqTxP26M6bi-212" value="登録日" style="shape=partialRectangle;connectable=0;fillColor=none;top=0;left=0;bottom=0;right=0;align=left;spacingLeft=6;overflow=hidden;" vertex="1" parent="bUKQFxGgtLqTxP26M6bi-219">
          <mxGeometry x="30" y="180" width="150" height="30" as="geometry" />
        </mxCell>
        <mxCell id="bUKQFxGgtLqTxP26M6bi-213" value="更新日" style="shape=partialRectangle;connectable=0;fillColor=none;top=0;left=0;bottom=0;right=0;align=left;spacingLeft=6;overflow=hidden;" vertex="1" parent="bUKQFxGgtLqTxP26M6bi-219">
          <mxGeometry x="30" y="210" width="150" height="30" as="geometry" />
        </mxCell>
        <mxCell id="bUKQFxGgtLqTxP26M6bi-205" value="" style="endArrow=none;html=1;rounded=0;" edge="1" parent="bUKQFxGgtLqTxP26M6bi-219">
          <mxGeometry relative="1" as="geometry">
            <mxPoint y="90" as="sourcePoint" />
            <mxPoint x="180" y="90" as="targetPoint" />
          </mxGeometry>
        </mxCell>
        <mxCell id="bUKQFxGgtLqTxP26M6bi-177" value="FK" style="shape=partialRectangle;connectable=0;fillColor=none;top=0;left=0;bottom=0;right=0;fontStyle=1;overflow=hidden;" vertex="1" parent="bUKQFxGgtLqTxP26M6bi-219">
          <mxGeometry y="50" width="30" height="50" as="geometry" />
        </mxCell>
        <mxCell id="bUKQFxGgtLqTxP26M6bi-221" value="利用期間" style="shape=partialRectangle;connectable=0;fillColor=none;top=0;left=0;bottom=0;right=0;align=left;spacingLeft=6;overflow=hidden;" vertex="1" parent="1">
          <mxGeometry x="490" y="170" width="150" height="30" as="geometry" />
        </mxCell>
        <mxCell id="bUKQFxGgtLqTxP26M6bi-222" value="登録日" style="shape=partialRectangle;connectable=0;fillColor=none;top=0;left=0;bottom=0;right=0;align=left;spacingLeft=6;overflow=hidden;" vertex="1" parent="1">
          <mxGeometry x="490" y="200" width="150" height="30" as="geometry" />
        </mxCell>
        <mxCell id="bUKQFxGgtLqTxP26M6bi-223" value="登録日" style="shape=partialRectangle;connectable=0;fillColor=none;top=0;left=0;bottom=0;right=0;align=left;spacingLeft=6;overflow=hidden;" vertex="1" parent="1">
          <mxGeometry x="490" y="230" width="150" height="30" as="geometry" />
        </mxCell>
        <mxCell id="bUKQFxGgtLqTxP26M6bi-224" value="" style="group" vertex="1" connectable="0" parent="1">
          <mxGeometry x="150" y="320" width="190" height="240" as="geometry" />
        </mxCell>
        <mxCell id="bUKQFxGgtLqTxP26M6bi-225" value="" style="group" vertex="1" connectable="0" parent="bUKQFxGgtLqTxP26M6bi-224">
          <mxGeometry width="190" height="240" as="geometry" />
        </mxCell>
        <mxCell id="bUKQFxGgtLqTxP26M6bi-106" value="本" style="shape=table;startSize=30;container=1;collapsible=1;childLayout=tableLayout;fixedRows=1;rowLines=0;fontStyle=1;align=center;resizeLast=1;" vertex="1" parent="bUKQFxGgtLqTxP26M6bi-225">
          <mxGeometry width="180" height="240" as="geometry">
            <mxRectangle x="150" y="260" width="40" height="30" as="alternateBounds" />
          </mxGeometry>
        </mxCell>
        <mxCell id="bUKQFxGgtLqTxP26M6bi-107" value="" style="shape=partialRectangle;collapsible=0;dropTarget=0;pointerEvents=0;fillColor=none;top=0;left=0;bottom=1;right=0;points=[[0,0.5],[1,0.5]];portConstraint=eastwest;" vertex="1" parent="bUKQFxGgtLqTxP26M6bi-106">
          <mxGeometry y="30" width="180" height="30" as="geometry" />
        </mxCell>
        <mxCell id="bUKQFxGgtLqTxP26M6bi-108" value="PK" style="shape=partialRectangle;connectable=0;fillColor=none;top=0;left=0;bottom=0;right=0;fontStyle=1;overflow=hidden;" vertex="1" parent="bUKQFxGgtLqTxP26M6bi-107">
          <mxGeometry width="30" height="30" as="geometry" />
        </mxCell>
        <mxCell id="bUKQFxGgtLqTxP26M6bi-109" value="ID" style="shape=partialRectangle;connectable=0;fillColor=none;top=0;left=0;bottom=0;right=0;align=left;spacingLeft=6;fontStyle=5;overflow=hidden;" vertex="1" parent="bUKQFxGgtLqTxP26M6bi-107">
          <mxGeometry x="30" width="150" height="30" as="geometry" />
        </mxCell>
        <mxCell id="bUKQFxGgtLqTxP26M6bi-110" value="" style="shape=partialRectangle;collapsible=0;dropTarget=0;pointerEvents=0;fillColor=none;top=0;left=0;bottom=0;right=0;points=[[0,0.5],[1,0.5]];portConstraint=eastwest;" vertex="1" parent="bUKQFxGgtLqTxP26M6bi-106">
          <mxGeometry y="60" width="180" height="30" as="geometry" />
        </mxCell>
        <mxCell id="bUKQFxGgtLqTxP26M6bi-111" value="" style="shape=partialRectangle;connectable=0;fillColor=none;top=0;left=0;bottom=0;right=0;editable=1;overflow=hidden;" vertex="1" parent="bUKQFxGgtLqTxP26M6bi-110">
          <mxGeometry width="30" height="30" as="geometry" />
        </mxCell>
        <mxCell id="bUKQFxGgtLqTxP26M6bi-112" value="本タイトル" style="shape=partialRectangle;connectable=0;fillColor=none;top=0;left=0;bottom=0;right=0;align=left;spacingLeft=6;overflow=hidden;" vertex="1" parent="bUKQFxGgtLqTxP26M6bi-110">
          <mxGeometry x="30" width="150" height="30" as="geometry" />
        </mxCell>
        <mxCell id="bUKQFxGgtLqTxP26M6bi-113" value="" style="shape=partialRectangle;collapsible=0;dropTarget=0;pointerEvents=0;fillColor=none;top=0;left=0;bottom=0;right=0;points=[[0,0.5],[1,0.5]];portConstraint=eastwest;" vertex="1" parent="bUKQFxGgtLqTxP26M6bi-106">
          <mxGeometry y="90" width="180" height="20" as="geometry" />
        </mxCell>
        <mxCell id="bUKQFxGgtLqTxP26M6bi-114" value="" style="shape=partialRectangle;connectable=0;fillColor=none;top=0;left=0;bottom=0;right=0;editable=1;overflow=hidden;" vertex="1" parent="bUKQFxGgtLqTxP26M6bi-113">
          <mxGeometry width="30" height="20" as="geometry" />
        </mxCell>
        <mxCell id="bUKQFxGgtLqTxP26M6bi-115" value="作者" style="shape=partialRectangle;connectable=0;fillColor=none;top=0;left=0;bottom=0;right=0;align=left;spacingLeft=6;overflow=hidden;" vertex="1" parent="bUKQFxGgtLqTxP26M6bi-113">
          <mxGeometry x="30" width="150" height="20" as="geometry" />
        </mxCell>
        <mxCell id="bUKQFxGgtLqTxP26M6bi-116" value="" style="shape=partialRectangle;collapsible=0;dropTarget=0;pointerEvents=0;fillColor=none;top=0;left=0;bottom=0;right=0;points=[[0,0.5],[1,0.5]];portConstraint=eastwest;" vertex="1" parent="bUKQFxGgtLqTxP26M6bi-106">
          <mxGeometry y="110" width="180" height="30" as="geometry" />
        </mxCell>
        <mxCell id="bUKQFxGgtLqTxP26M6bi-117" value="" style="shape=partialRectangle;connectable=0;fillColor=none;top=0;left=0;bottom=0;right=0;editable=1;overflow=hidden;" vertex="1" parent="bUKQFxGgtLqTxP26M6bi-116">
          <mxGeometry width="30" height="30" as="geometry" />
        </mxCell>
        <mxCell id="bUKQFxGgtLqTxP26M6bi-118" value="" style="shape=partialRectangle;connectable=0;fillColor=none;top=0;left=0;bottom=0;right=0;align=left;spacingLeft=6;overflow=hidden;" vertex="1" parent="bUKQFxGgtLqTxP26M6bi-116">
          <mxGeometry x="30" width="150" height="30" as="geometry" />
        </mxCell>
        <mxCell id="bUKQFxGgtLqTxP26M6bi-136" value="貸出ステータス" style="shape=partialRectangle;connectable=0;fillColor=none;top=0;left=0;bottom=0;right=0;align=left;spacingLeft=6;overflow=hidden;" vertex="1" parent="bUKQFxGgtLqTxP26M6bi-225">
          <mxGeometry x="30" y="150" width="150" height="30" as="geometry" />
        </mxCell>
        <mxCell id="bUKQFxGgtLqTxP26M6bi-210" value="登録日" style="shape=partialRectangle;connectable=0;fillColor=none;top=0;left=0;bottom=0;right=0;align=left;spacingLeft=6;overflow=hidden;" vertex="1" parent="bUKQFxGgtLqTxP26M6bi-225">
          <mxGeometry x="30" y="180" width="150" height="30" as="geometry" />
        </mxCell>
        <mxCell id="bUKQFxGgtLqTxP26M6bi-211" value="更新日" style="shape=partialRectangle;connectable=0;fillColor=none;top=0;left=0;bottom=0;right=0;align=left;spacingLeft=6;overflow=hidden;" vertex="1" parent="bUKQFxGgtLqTxP26M6bi-225">
          <mxGeometry x="30" y="210" width="150" height="30" as="geometry" />
        </mxCell>
        <mxCell id="bUKQFxGgtLqTxP26M6bi-119" value="ジャンル" style="shape=partialRectangle;connectable=0;fillColor=none;top=0;left=0;bottom=0;right=0;align=left;spacingLeft=6;overflow=hidden;" vertex="1" parent="bUKQFxGgtLqTxP26M6bi-225">
          <mxGeometry x="30" y="120" width="150" height="30" as="geometry" />
        </mxCell>
        <mxCell id="bUKQFxGgtLqTxP26M6bi-226" value="" style="group" vertex="1" connectable="0" parent="1">
          <mxGeometry x="780" y="320" width="180" height="220" as="geometry" />
        </mxCell>
        <mxCell id="bUKQFxGgtLqTxP26M6bi-137" value="ユーザー" style="shape=table;startSize=30;container=1;collapsible=1;childLayout=tableLayout;fixedRows=1;rowLines=0;fontStyle=1;align=center;resizeLast=1;" vertex="1" parent="bUKQFxGgtLqTxP26M6bi-226">
          <mxGeometry width="180" height="220" as="geometry" />
        </mxCell>
        <mxCell id="bUKQFxGgtLqTxP26M6bi-138" value="" style="shape=partialRectangle;collapsible=0;dropTarget=0;pointerEvents=0;fillColor=none;top=0;left=0;bottom=1;right=0;points=[[0,0.5],[1,0.5]];portConstraint=eastwest;" vertex="1" parent="bUKQFxGgtLqTxP26M6bi-137">
          <mxGeometry y="30" width="180" height="30" as="geometry" />
        </mxCell>
        <mxCell id="bUKQFxGgtLqTxP26M6bi-139" value="PK" style="shape=partialRectangle;connectable=0;fillColor=none;top=0;left=0;bottom=0;right=0;fontStyle=1;overflow=hidden;" vertex="1" parent="bUKQFxGgtLqTxP26M6bi-138">
          <mxGeometry width="30" height="30" as="geometry" />
        </mxCell>
        <mxCell id="bUKQFxGgtLqTxP26M6bi-140" value="ID" style="shape=partialRectangle;connectable=0;fillColor=none;top=0;left=0;bottom=0;right=0;align=left;spacingLeft=6;fontStyle=5;overflow=hidden;" vertex="1" parent="bUKQFxGgtLqTxP26M6bi-138">
          <mxGeometry x="30" width="150" height="30" as="geometry" />
        </mxCell>
        <mxCell id="bUKQFxGgtLqTxP26M6bi-141" value="" style="shape=partialRectangle;collapsible=0;dropTarget=0;pointerEvents=0;fillColor=none;top=0;left=0;bottom=0;right=0;points=[[0,0.5],[1,0.5]];portConstraint=eastwest;" vertex="1" parent="bUKQFxGgtLqTxP26M6bi-137">
          <mxGeometry y="60" width="180" height="30" as="geometry" />
        </mxCell>
        <mxCell id="bUKQFxGgtLqTxP26M6bi-142" value="" style="shape=partialRectangle;connectable=0;fillColor=none;top=0;left=0;bottom=0;right=0;editable=1;overflow=hidden;" vertex="1" parent="bUKQFxGgtLqTxP26M6bi-141">
          <mxGeometry width="30" height="30" as="geometry" />
        </mxCell>
        <mxCell id="bUKQFxGgtLqTxP26M6bi-143" value="名前" style="shape=partialRectangle;connectable=0;fillColor=none;top=0;left=0;bottom=0;right=0;align=left;spacingLeft=6;overflow=hidden;" vertex="1" parent="bUKQFxGgtLqTxP26M6bi-141">
          <mxGeometry x="30" width="150" height="30" as="geometry" />
        </mxCell>
        <mxCell id="bUKQFxGgtLqTxP26M6bi-144" value="" style="shape=partialRectangle;collapsible=0;dropTarget=0;pointerEvents=0;fillColor=none;top=0;left=0;bottom=0;right=0;points=[[0,0.5],[1,0.5]];portConstraint=eastwest;" vertex="1" parent="bUKQFxGgtLqTxP26M6bi-137">
          <mxGeometry y="90" width="180" height="30" as="geometry" />
        </mxCell>
        <mxCell id="bUKQFxGgtLqTxP26M6bi-145" value="" style="shape=partialRectangle;connectable=0;fillColor=none;top=0;left=0;bottom=0;right=0;editable=1;overflow=hidden;" vertex="1" parent="bUKQFxGgtLqTxP26M6bi-144">
          <mxGeometry width="30" height="30" as="geometry" />
        </mxCell>
        <mxCell id="bUKQFxGgtLqTxP26M6bi-146" value="電話番号" style="shape=partialRectangle;connectable=0;fillColor=none;top=0;left=0;bottom=0;right=0;align=left;spacingLeft=6;overflow=hidden;" vertex="1" parent="bUKQFxGgtLqTxP26M6bi-144">
          <mxGeometry x="30" width="150" height="30" as="geometry" />
        </mxCell>
        <mxCell id="bUKQFxGgtLqTxP26M6bi-147" value="" style="shape=partialRectangle;collapsible=0;dropTarget=0;pointerEvents=0;fillColor=none;top=0;left=0;bottom=0;right=0;points=[[0,0.5],[1,0.5]];portConstraint=eastwest;" vertex="1" parent="bUKQFxGgtLqTxP26M6bi-137">
          <mxGeometry y="120" width="180" height="30" as="geometry" />
        </mxCell>
        <mxCell id="bUKQFxGgtLqTxP26M6bi-148" value="" style="shape=partialRectangle;connectable=0;fillColor=none;top=0;left=0;bottom=0;right=0;editable=1;overflow=hidden;" vertex="1" parent="bUKQFxGgtLqTxP26M6bi-147">
          <mxGeometry width="30" height="30" as="geometry" />
        </mxCell>
        <mxCell id="bUKQFxGgtLqTxP26M6bi-149" value="住所" style="shape=partialRectangle;connectable=0;fillColor=none;top=0;left=0;bottom=0;right=0;align=left;spacingLeft=6;overflow=hidden;" vertex="1" parent="bUKQFxGgtLqTxP26M6bi-147">
          <mxGeometry x="30" width="150" height="30" as="geometry" />
        </mxCell>
        <mxCell id="bUKQFxGgtLqTxP26M6bi-214" value="登録日" style="shape=partialRectangle;connectable=0;fillColor=none;top=0;left=0;bottom=0;right=0;align=left;spacingLeft=6;overflow=hidden;" vertex="1" parent="bUKQFxGgtLqTxP26M6bi-226">
          <mxGeometry x="30" y="150" width="150" height="30" as="geometry" />
        </mxCell>
        <mxCell id="bUKQFxGgtLqTxP26M6bi-215" value="更新日" style="shape=partialRectangle;connectable=0;fillColor=none;top=0;left=0;bottom=0;right=0;align=left;spacingLeft=6;overflow=hidden;" vertex="1" parent="bUKQFxGgtLqTxP26M6bi-226">
          <mxGeometry x="30" y="180" width="150" height="30" as="geometry" />
        </mxCell>
        <mxCell id="bUKQFxGgtLqTxP26M6bi-227" value="登録日" style="shape=partialRectangle;connectable=0;fillColor=none;top=0;left=0;bottom=0;right=0;align=left;spacingLeft=6;overflow=hidden;" vertex="1" parent="1">
          <mxGeometry x="180" y="800" width="150" height="30" as="geometry" />
        </mxCell>
        <mxCell id="bUKQFxGgtLqTxP26M6bi-228" value="更新日" style="shape=partialRectangle;connectable=0;fillColor=none;top=0;left=0;bottom=0;right=0;align=left;spacingLeft=6;overflow=hidden;" vertex="1" parent="1">
          <mxGeometry x="180" y="830" width="150" height="30" as="geometry" />
        </mxCell>
        <mxCell id="bUKQFxGgtLqTxP26M6bi-229" value="登録日" style="shape=partialRectangle;connectable=0;fillColor=none;top=0;left=0;bottom=0;right=0;align=left;spacingLeft=6;overflow=hidden;" vertex="1" parent="1">
          <mxGeometry x="490" y="800" width="150" height="30" as="geometry" />
        </mxCell>
        <mxCell id="bUKQFxGgtLqTxP26M6bi-230" value="更新日" style="shape=partialRectangle;connectable=0;fillColor=none;top=0;left=0;bottom=0;right=0;align=left;spacingLeft=6;overflow=hidden;" vertex="1" parent="1">
          <mxGeometry x="490" y="830" width="150" height="30" as="geometry" />
        </mxCell>
        <mxCell id="bUKQFxGgtLqTxP26M6bi-236" value="" style="edgeStyle=entityRelationEdgeStyle;fontSize=12;html=1;endArrow=ERzeroToMany;startArrow=ERzeroToOne;strokeColor=#000000;" edge="1" parent="1">
          <mxGeometry width="100" height="100" relative="1" as="geometry">
            <mxPoint x="330" y="360" as="sourcePoint" />
            <mxPoint x="460" y="390" as="targetPoint" />
          </mxGeometry>
        </mxCell>
        <mxCell id="bUKQFxGgtLqTxP26M6bi-237" value="" style="edgeStyle=entityRelationEdgeStyle;fontSize=12;html=1;endArrow=ERzeroToMany;startArrow=ERzeroToOne;exitX=1;exitY=0.5;exitDx=0;exitDy=0;strokeColor=none;" edge="1" parent="1" source="bUKQFxGgtLqTxP26M6bi-151">
          <mxGeometry width="100" height="100" relative="1" as="geometry">
            <mxPoint x="350" y="640" as="sourcePoint" />
            <mxPoint x="400" y="470" as="targetPoint" />
          </mxGeometry>
        </mxCell>
        <mxCell id="bUKQFxGgtLqTxP26M6bi-238" value="" style="edgeStyle=entityRelationEdgeStyle;fontSize=12;html=1;endArrow=ERzeroToMany;startArrow=ERzeroToOne;strokeColor=#000000;entryX=0.97;entryY=-0.073;entryDx=0;entryDy=0;entryPerimeter=0;" edge="1" parent="1" target="bUKQFxGgtLqTxP26M6bi-110">
          <mxGeometry width="100" height="100" relative="1" as="geometry">
            <mxPoint x="330" y="670" as="sourcePoint" />
            <mxPoint x="450" y="590" as="targetPoint" />
          </mxGeometry>
        </mxCell>
        <mxCell id="bUKQFxGgtLqTxP26M6bi-240" value="" style="edgeStyle=entityRelationEdgeStyle;fontSize=12;html=1;endArrow=ERzeroToMany;startArrow=ERzeroToOne;strokeColor=#000000;entryX=1;entryY=0.5;entryDx=0;entryDy=0;exitX=0;exitY=0.5;exitDx=0;exitDy=0;" edge="1" parent="1" source="bUKQFxGgtLqTxP26M6bi-138" target="bUKQFxGgtLqTxP26M6bi-126">
          <mxGeometry width="100" height="100" relative="1" as="geometry">
            <mxPoint x="640" y="560" as="sourcePoint" />
            <mxPoint x="740" y="460" as="targetPoint" />
          </mxGeometry>
        </mxCell>
        <mxCell id="bUKQFxGgtLqTxP26M6bi-245" value="" style="edgeStyle=entityRelationEdgeStyle;fontSize=12;html=1;endArrow=ERzeroToMany;endFill=1;startArrow=ERzeroToMany;strokeColor=#000000;" edge="1" parent="1">
          <mxGeometry width="100" height="100" relative="1" as="geometry">
            <mxPoint x="330" y="370" as="sourcePoint" />
            <mxPoint x="460" y="695" as="targetPoint" />
          </mxGeometry>
        </mxCell>
        <mxCell id="bUKQFxGgtLqTxP26M6bi-246" value="" style="edgeStyle=entityRelationEdgeStyle;fontSize=12;html=1;endArrow=ERzeroToMany;endFill=1;startArrow=ERzeroToMany;strokeColor=#000000;entryX=-0.007;entryY=0.81;entryDx=0;entryDy=0;entryPerimeter=0;" edge="1" parent="1" target="bUKQFxGgtLqTxP26M6bi-138">
          <mxGeometry width="100" height="100" relative="1" as="geometry">
            <mxPoint x="640" y="730" as="sourcePoint" />
            <mxPoint x="740" y="630" as="targetPoint" />
          </mxGeometry>
        </mxCell>
        <mxCell id="bUKQFxGgtLqTxP26M6bi-247" value="" style="edgeStyle=entityRelationEdgeStyle;fontSize=12;html=1;endArrow=ERzeroToMany;endFill=1;startArrow=ERzeroToMany;strokeColor=#000000;" edge="1" parent="1">
          <mxGeometry width="100" height="100" relative="1" as="geometry">
            <mxPoint x="330" y="350" as="sourcePoint" />
            <mxPoint x="460" y="130" as="targetPoint" />
          </mxGeometry>
        </mxCell>
      </root>
    </mxGraphModel>
  </diagram>
</mxfile>
